<svg xmlns="http://www.w3.org/2000/svg"
     width="0.533333in" height="0.533333in"
     viewBox="26 26 108 108">
    <rect x="26" y="26" width="100%" height="100%" rx="30%" ry="30%" style="fill:#2c96dd" />
    <path id="drop_shadow"
        fill="#696969" stroke="" stroke-width="1"
        d="M 80.00,39.00
           C 80.00,39.00 116.00,73.00 116.00,95.00
             116.00,114.00 101.00,126.00 85.00,126.00
             68.00,126.00 49.00,111.00 49.00,90.00
             49.00,71.00 80.00,39.00 80.00,39.00 Z" />
    <path id="drop"
        fill="#ffffff" stroke="" stroke-width="1"
        d="M 80.00,39.00
           C 80.00,39.00 111.00,71.00 111.00,90.00
             111.00,109.00 96.00,121.00 80.00,121.00
             64.00,121.00 49.00,109.00 49.00,90.00
             49.00,71.00 80.00,39.00 80.00,39.00 Z" />
    <path id="cross_background"
        fill="#2c96dd" stroke="" stroke-width="1"
        d="M 70.00,95.00
           C 70.00,95.00 70.00,90.00 70.00,90.00
             70.00,90.00 80.00,90.00 80.00,90.00
             80.00,90.00 80.00,80.00 80.00,80.00
             80.00,80.00 85.00,80.00 85.00,80.00
             85.00,80.00 85.00,85.00 85.00,85.00
             85.00,85.00 90.00,90.00 90.00,90.00
             90.00,90.00 95.00,90.00 95.00,90.00
             95.00,90.00 95.00,95.00 95.00,95.00
             95.00,95.00 85.00,95.00 85.00,95.00
             85.00,95.00 85.00,105.00 85.00,105.00
             85.00,105.00 80.00,105.00 80.00,105.00
             80.00,105.00 80.00,100.00 80.00,100.00
             80.00,100.00 75.00,95.00 75.00,95.00
             75.00,95.00 70.00,95.00 70.00,95.00 Z" />
    <path id="cross_shadow"
        fill="#696969" stroke="" stroke-width="1"
        d="M 70.00,90.00
           C 70.00,90.00 70.00,95.00 70.00,95.00
             70.00,95.00 65.00,95.00 65.00,95.00
             65.00,95.00 65.00,85.00 65.00,85.00
             65.00,85.00 75.00,85.00 75.00,85.00
             75.00,85.00 75.00,75.00 75.00,75.00
             75.00,75.00 85.00,75.00 85.00,75.00
             85.00,75.00 85.00,80.00 85.00,80.00
             85.00,80.00 80.00,80.00 80.00,80.00
             80.00,80.00 80.00,90.00 80.00,90.00
             80.00,90.00 70.00,90.00 70.00,90.00 Z
           M 75.00,95.00
           C 75.00,95.00 75.00,105.00 75.00,105.00
             75.00,105.00 80.00,105.00 80.00,105.00
             80.00,105.00 80.00,100.00 80.00,100.00
             80.00,100.00 75.00,95.00 75.00,95.00 Z
           M 85.00,85.00
           C 85.00,85.00 90.00,90.00 90.00,90.00
             90.00,90.00 95.00,90.00 95.00,90.00
             95.00,90.00 95.00,85.00 95.00,85.00
             95.00,85.00 85.00,85.00 85.00,85.00 Z" />
</svg>
